<?xml version="1.0" standalone="no"?>
<!DOCTYPE svg PUBLIC "-//W3C//DTD SVG 20010904//EN"
 "http://www.w3.org/TR/2001/REC-SVG-20010904/DTD/svg10.dtd">
<svg version="1.0" xmlns="http://www.w3.org/2000/svg"
 width="166.000000pt" height="166.000000pt" viewBox="0 0 166.000000 166.000000"
 preserveAspectRatio="xMidYMid meet">
<metadata>
Created by potrace 1.11, written by Peter Selinger 2001-2013
</metadata>
<g transform="translate(0.000000,166.000000) scale(0.100000,-0.100000)"
fill="#000000" stroke="none">
<path d="M332 1598 c3 -56 5 -63 25 -66 l23 -3 -6 -332 c-4 -274 -8 -333 -20
-340 -18 -10 -18 -34 0 -44 12 -7 16 -64 20 -332 l6 -324 -24 -22 c-20 -18
-24 -30 -21 -65 2 -24 10 -47 17 -51 22 -14 942 -11 956 3 28 28 6 128 -28
128 -6 0 -7 66 -4 158 10 273 11 446 3 469 -6 17 -4 25 11 33 26 14 25 35 0
53 -16 11 -19 19 -12 38 9 26 8 153 -2 440 -6 161 -5 188 9 199 10 8 15 30 15
66 l0 54 -485 0 -486 0 3 -62z m114 -375 c8 -17 14 -34 14 -38 0 -20 76 -98
118 -121 217 -123 274 -202 208 -289 -30 -39 -98 -90 -181 -135 -95 -52 -129
-91 -164 -189 l-17 -49 3 201 c2 165 5 203 18 217 15 16 15 19 0 34 -14 13
-17 49 -19 228 -1 117 -1 204 2 193 2 -11 10 -34 18 -52z m781 -120 c-2 -93 0
-181 4 -196 6 -22 4 -30 -12 -40 -24 -15 -25 -43 0 -56 15 -9 17 -17 12 -48
-4 -21 -6 -108 -4 -193 2 -139 1 -151 -10 -115 -28 84 -98 162 -170 188 -54
20 -195 137 -198 165 0 4 -2 17 -5 30 -10 55 66 133 201 208 97 54 144 106
166 182 6 23 13 42 16 42 2 0 2 -75 0 -167z"/>
</g>
</svg>
