<?xml version="1.0" standalone="no"?>
<!DOCTYPE svg PUBLIC "-//W3C//DTD SVG 20010904//EN"
 "http://www.w3.org/TR/2001/REC-SVG-20010904/DTD/svg10.dtd">
<svg version="1.0" xmlns="http://www.w3.org/2000/svg"
 width="3224.000000pt" height="3224.000000pt" viewBox="0 0 3224.000000 3224.000000"
 preserveAspectRatio="xMidYMid meet">
<metadata>
Created by potrace 1.11, written by Peter Selinger 2001-2013
</metadata>
<g transform="translate(0.000000,3224.000000) scale(0.100000,-0.100000)"
fill="#000000" stroke="none">
<path d="M18994 28092 l19 -22 -127 0 c-91 0 -131 4 -140 13 -8 8 -32 12 -62
10 -27 -1 -55 -2 -62 -2 -7 -1 -10 -5 -7 -11 4 -6 -43 -10 -134 -10 -82 0
-142 4 -146 10 -3 6 -37 10 -75 10 -38 0 -72 -4 -75 -10 -9 -14 -2565 -14
-2565 0 0 12 -79 10 -86 -2 -7 -12 -94 -10 -94 2 0 6 -22 10 -50 10 -27 0 -50
-4 -50 -10 0 -5 -18 -10 -40 -10 -22 0 -40 5 -40 10 0 6 -22 10 -50 10 -27 0
-50 -4 -50 -10 0 -5 -13 -10 -30 -10 -16 0 -30 5 -30 10 0 6 -22 10 -50 10
-27 0 -50 -4 -50 -10 0 -6 -99 -10 -277 -10 -237 1 -275 3 -260 14 15 12 3 13
-90 10 -59 -3 -130 -9 -158 -15 -38 -8 -1019 -9 -1535 -1 -8 0 -961 -2 -2117
-4 l-2103 -5 0 -494 0 -494 -43 -26 c-55 -31 -124 -104 -133 -139 -3 -14 -10
-29 -15 -32 -5 -3 -7 -10 -4 -15 4 -5 2 -9 -4 -9 -6 0 -13 -17 -17 -37 -3 -21
-12 -60 -19 -88 -12 -47 -13 -389 -2 -440 3 -11 8 -65 12 -120 4 -55 8 -113
11 -130 2 -16 6 -120 9 -230 2 -110 8 -220 13 -245 4 -25 5 -63 2 -85 -3 -22
-2 -56 1 -75 4 -19 8 -109 9 -200 2 -270 10 -504 16 -520 4 -8 8 -121 10 -250
2 -129 6 -255 8 -280 2 -25 1 -49 -1 -54 -3 -5 -7 -158 -9 -340 -2 -182 -5
-349 -8 -371 -2 -22 -7 -89 -10 -150 -4 -60 -9 -132 -12 -160 -12 -134 -25
-282 -34 -396 -10 -139 -8 -1198 3 -1216 8 -13 22 -1163 17 -1453 0 -14 3 -95
6 -180 3 -85 6 -179 6 -207 0 -29 4 -53 9 -53 5 0 9 -5 9 -11 0 -5 -3 -8 -8
-6 -8 6 -7 -378 5 -1338 9 -804 9 -916 0 -1215 -4 -129 -10 -325 -13 -435 -6
-217 -11 -350 -15 -350 -4 0 -7 -55 -13 -213 -3 -90 -8 -167 -11 -172 -3 -5
-8 -75 -11 -157 -3 -81 -10 -153 -15 -159 -5 -6 -7 -13 -4 -16 3 -2 8 -70 11
-149 3 -79 10 -179 14 -221 17 -144 28 -727 16 -798 -3 -14 -7 -72 -11 -130
-3 -58 -7 -121 -10 -140 -7 -52 -14 -210 -20 -445 -5 -222 -15 -447 -21 -479
-4 -22 -18 -394 -17 -451 2 -98 15 -463 17 -495 2 -19 -3 -44 -10 -55 -15 -22
-15 -65 -1 -65 5 0 3 -8 -4 -17 -8 -9 -9 -14 -3 -10 7 4 11 -45 12 -156 2
-285 23 -632 43 -708 5 -20 9 -52 9 -71 0 -20 7 -53 17 -74 9 -22 17 -56 19
-77 1 -20 9 -48 18 -61 8 -14 17 -45 20 -70 3 -30 14 -60 35 -87 17 -23 28
-46 25 -51 -3 -4 -1 -8 4 -8 5 0 8 -12 7 -27 0 -16 7 -37 17 -47 15 -17 17
-42 16 -250 l-2 -231 70 3 c38 1 78 4 90 7 21 5 21 3 27 -357 10 -531 9 -788
-4 -828 -7 -23 -10 -120 -8 -285 6 -396 0 -562 -25 -681 -32 -151 -61 -454
-47 -481 5 -10 12 -26 15 -37 5 -14 13 -17 36 -14 26 4 30 1 30 -18 0 -12 -7
-27 -15 -34 -8 -7 -15 -22 -15 -33 0 -11 -9 -31 -21 -43 -20 -21 -20 -34 -26
-575 -3 -305 -4 -630 -2 -724 4 -182 3 -513 -2 -792 -3 -172 -4 -173 -26 -173
l-23 0 0 -500 0 -500 1905 0 c1263 0 1905 -3 1905 -10 0 -5 23 -10 50 -10 28
0 50 5 50 10 0 13 137 13 145 0 7 -12 84 -10 91 2 7 11 437 10 450 -1 5 -5 40
-11 77 -14 57 -4 66 -3 56 9 -10 12 9 14 116 14 91 0 133 -4 144 -13 19 -15
135 -11 125 4 -4 7 49 8 143 5 81 -3 173 -6 203 -5 30 0 637 2 1349 5 950 3
1297 1 1302 -7 5 -8 20 -8 58 0 65 14 118 14 126 1 8 -13 95 -13 95 0 0 13 77
13 85 0 8 -13 82 -13 90 0 8 13 65 13 65 0 0 -5 23 -10 50 -10 28 0 50 5 50
10 0 6 99 10 276 10 191 0 273 -3 269 -11 -5 -7 31 -8 117 -4 67 3 1416 8
2997 11 1581 2 2876 5 2877 7 2 2 3 1084 1 1567 -1 124 0 297 2 385 2 88 0
414 -4 725 -7 538 -8 566 -26 582 -10 9 -19 26 -19 39 0 12 -7 31 -17 41 -9
10 -18 32 -20 50 -3 30 -2 30 15 15 28 -26 46 -20 64 19 18 39 18 24 -12 309
-6 54 -17 131 -25 170 -8 39 -18 115 -22 170 -8 128 -10 508 -2 650 5 86 3
115 -9 134 -16 26 -18 224 -10 861 l4 355 54 -3 c150 -8 135 -11 134 28 -8
236 -4 539 7 563 7 15 16 27 21 27 4 0 8 6 8 13 0 7 14 29 31 50 17 20 27 41
24 47 -3 6 0 13 8 15 7 3 13 16 12 28 -1 12 8 38 20 57 12 19 22 37 21 40 -1
8 25 93 35 112 5 10 9 31 9 47 0 16 4 41 9 54 25 66 29 237 16 717 -9 345 -10
466 -2 500 29 142 38 466 24 840 -19 501 -27 871 -27 1244 -1 176 -6 313 -14
368 -7 48 -9 91 -4 96 4 4 3 44 -2 89 -14 110 -21 633 -9 633 9 0 9 40 -8 655
-7 282 -6 793 2 1020 8 228 18 595 18 695 0 47 0 184 0 305 0 121 -1 427 -2
680 -9 1561 -1 3001 16 3029 4 5 8 129 9 275 2 146 6 320 10 386 11 224 12
300 5 430 -4 72 -6 133 -4 136 3 8 16 391 14 429 -3 53 -3 86 -2 120 5 118 -1
250 -11 244 -8 -5 -9 11 -4 57 14 116 16 180 6 174 -6 -4 -7 2 -1 18 6 14 7
27 4 30 -3 3 -5 22 -5 41 0 23 -4 34 -11 29 -6 -4 -7 -1 -1 8 5 8 10 55 10
104 1 50 3 138 5 196 2 71 0 111 -8 121 -7 7 -11 27 -10 43 0 17 -2 80 -6 140
-4 61 -9 171 -13 245 -3 74 -9 171 -15 215 -5 44 -6 124 -3 179 5 78 4 100 -7
107 -9 5 -9 9 -3 9 8 0 9 11 3 38 -10 48 -11 136 -4 452 3 163 1 274 -5 305
-6 28 -13 59 -15 70 -23 110 -68 219 -108 264 -12 13 -50 43 -84 68 l-63 45 0
499 0 499 -1906 0 c-1267 0 -1903 3 -1899 10 7 11 2 12 -60 12 -21 0 -41 -5
-43 -11 -5 -14 -142 -15 -142 -1 0 6 -20 10 -44 10 -25 0 -48 -4 -51 -10 -8
-13 -437 -14 -450 -1 -6 5 -35 11 -65 13 -30 3 -64 8 -75 13 -20 8 -20 8 -1
-13z m-8299 -1705 c60 -45 84 -79 126 -178 37 -84 49 -130 68 -259 10 -62 21
-110 29 -125 3 -5 7 -23 9 -40 2 -16 6 -37 9 -45 7 -17 12 -45 19 -110 2 -25
5 -45 6 -45 9 0 14 -579 5 -615 -5 -22 -20 -400 -18 -485 2 -121 2 -183 0
-445 -1 -162 0 -332 3 -377 3 -67 1 -85 -12 -95 -9 -7 -46 -52 -83 -101 -68
-88 -70 -92 -64 -169 0 -7 -3 -69 -7 -138 -4 -69 -7 -150 -6 -180 1 -30 -3
-66 -8 -80 -5 -14 -20 -59 -32 -100 -13 -41 -34 -89 -46 -106 -13 -17 -20 -34
-16 -37 3 -4 2 -7 -4 -7 -6 0 -13 -8 -16 -17 -4 -10 -14 -29 -24 -43 -10 -13
-13 -21 -6 -17 8 5 7 -7 -3 -39 -7 -26 -11 -50 -8 -55 3 -5 0 -9 -5 -9 -6 0
-11 -10 -11 -22 0 -18 -2 -20 -10 -8 -8 12 -10 12 -16 -3 -3 -9 -10 -14 -15
-11 -5 3 -9 0 -9 -5 0 -6 -9 -11 -19 -11 -11 0 -23 -5 -26 -11 -4 -6 -13 -8
-20 -5 -18 7 -30 -155 -20 -293 7 -104 6 -105 -13 -88 -23 21 -38 71 -47 157
-4 36 -18 106 -32 155 -37 137 -51 195 -57 250 -3 28 -8 64 -10 80 -11 61 -16
102 -22 175 -3 41 -7 89 -10 105 -20 122 -23 244 -11 440 3 61 8 275 10 476 3
202 7 372 11 378 4 6 2 20 -4 31 -7 13 -7 20 0 20 5 0 10 8 10 18 0 14 -2 15
-10 2 -8 -13 -10 -12 -10 3 0 9 6 17 13 18 10 0 10 2 0 6 -14 5 -18 33 -5 33
4 0 8 39 9 88 0 48 4 168 8 267 4 99 7 377 7 617 0 259 3 440 9 443 5 4 9 11
9 16 0 6 -3 8 -7 6 -14 -9 -1 97 15 121 12 19 12 22 1 20 -14 -3 -15 15 -4 87
7 41 18 183 18 218 -1 16 4 26 11 24 18 -6 36 20 36 52 0 25 4 31 21 31 22 0
49 22 49 39 0 15 32 29 55 24 55 -11 95 -10 95 2 0 20 39 7 85 -28z m10921
-400 l16 -29 19 21 c20 21 58 21 85 -1 6 -4 19 -6 28 -2 14 6 21 -5 17 -28 0
-5 4 -8 11 -8 6 0 8 -3 5 -7 -4 -3 -2 -12 4 -19 6 -8 9 -20 5 -29 -3 -8 -1
-14 5 -12 6 1 19 -14 30 -33 10 -19 19 -31 19 -27 0 4 6 2 14 -5 8 -7 12 -15
10 -17 -5 -5 23 -31 34 -31 6 0 8 -9 5 -20 -4 -14 -1 -20 7 -18 15 4 19 -15
21 -122 1 -50 6 -88 13 -92 8 -6 8 -8 0 -8 -7 0 -10 -13 -8 -32 10 -77 10
-134 1 -145 -5 -7 -6 -13 -1 -13 5 0 4 -4 -2 -8 -8 -4 -14 -65 -18 -172 -3
-91 -9 -192 -12 -225 -4 -33 -7 -71 -8 -85 0 -14 -4 -27 -7 -30 -3 -3 -11 -48
-17 -100 -7 -52 -14 -104 -16 -115 -2 -11 -5 -26 -5 -34 -1 -10 -4 -11 -15 -2
-12 10 -14 -3 -15 -91 -1 -66 -5 -104 -12 -107 -8 -2 -8 -6 1 -11 9 -5 8 -9
-3 -13 -10 -4 -18 7 -27 36 -8 23 -18 47 -23 54 -5 7 -5 18 -1 25 4 7 4 10 -1
6 -11 -10 -60 69 -104 167 -19 44 -39 82 -43 83 -5 2 -6 8 -3 12 3 5 -2 18
-11 29 -10 11 -19 39 -21 63 -2 24 -10 66 -17 93 -33 119 -39 142 -43 175 -2
19 -7 46 -10 60 -3 14 -8 34 -10 45 -2 11 -10 40 -18 65 -7 25 -16 74 -18 110
-3 36 -10 78 -16 95 -7 16 -10 43 -7 60 3 16 8 57 11 90 3 33 9 68 12 78 7 26
11 60 18 152 4 44 9 83 11 87 2 3 0 10 -6 13 -7 4 -3 14 11 26 12 10 19 19 15
19 -4 0 5 13 21 28 35 36 50 36 69 -1z m510 -4229 c0 -51 3 -172 7 -268 4 -96
9 -269 12 -385 8 -319 15 -532 21 -720 4 -93 7 -233 8 -310 0 -80 5 -143 11
-147 6 -5 6 -8 -1 -8 -8 0 -10 -27 -8 -82 2 -46 6 -355 9 -688 3 -333 7 -704
10 -825 10 -479 19 -1047 18 -1170 -2 -163 -3 -940 -2 -980 1 -16 1 -59 0 -95
0 -36 0 -164 0 -285 0 -121 0 -335 0 -475 0 -253 3 -374 17 -585 6 -91 7
-1230 1 -1230 -1 0 -3 -36 -4 -80 -3 -83 -11 -194 -20 -255 -3 -19 -8 -73 -11
-120 -4 -47 -8 -101 -10 -120 -1 -19 -5 -73 -8 -120 -4 -47 -9 -114 -12 -150
-3 -36 -5 -69 -5 -75 4 -230 3 -335 -4 -354 -5 -18 -4 -22 5 -16 9 5 11 4 6
-3 -18 -29 -28 -491 -12 -597 4 -33 10 -85 11 -115 7 -119 16 -206 25 -230 5
-14 8 -36 7 -50 -2 -14 6 -45 16 -68 10 -24 17 -52 14 -61 -2 -10 9 -37 24
-60 16 -23 29 -47 29 -54 0 -7 -4 -6 -10 3 -5 8 -10 10 -10 4 0 -10 58 -94 73
-105 5 -3 8 -12 7 -20 -4 -27 0 -39 13 -39 6 0 23 -24 36 -52 13 -29 27 -55
30 -58 10 -8 33 -52 29 -56 -2 -2 -17 8 -32 21 -39 34 -42 31 -12 -8 15 -19
26 -41 26 -50 0 -10 7 -17 16 -17 8 0 13 -4 9 -10 -3 -5 6 -17 20 -26 13 -9
22 -20 19 -25 -3 -5 -1 -9 4 -9 8 0 25 -146 27 -230 0 -22 4 -25 38 -25 31 0
39 -4 42 -22 3 -13 8 -35 12 -50 4 -16 7 -296 7 -624 l1 -595 -30 -20 c-32
-20 -46 -67 -26 -87 8 -8 11 -177 11 -546 0 -528 0 -535 21 -557 19 -20 21
-38 26 -196 l6 -173 -28 -13 c-22 -10 -26 -17 -21 -36 4 -18 0 -28 -19 -40
-24 -16 -34 -49 -17 -60 4 -2 9 -430 10 -949 l2 -945 -37 -4 c-21 -3 -43 -3
-50 -1 -9 4 -12 428 -15 1791 -2 989 -7 1793 -12 1800 -4 8 -10 37 -13 65 -2
29 -5 75 -8 102 -7 97 -24 211 -34 239 -6 15 -11 41 -11 57 0 16 -7 55 -15 87
-7 31 -21 98 -30 147 -20 112 -41 202 -65 280 -10 33 -28 93 -40 134 -12 40
-33 101 -46 135 -14 33 -26 70 -28 81 -7 33 -57 169 -67 179 -5 6 -9 18 -9 29
0 10 -5 15 -10 12 -6 -4 -10 -3 -9 2 4 22 -3 41 -21 61 -11 11 -31 45 -44 74
-14 29 -31 64 -39 78 -13 22 -111 220 -230 465 -49 98 -130 221 -146 217 -6
-1 -10 3 -9 10 2 7 -3 12 -11 13 -8 0 -15 8 -17 17 -1 10 -14 28 -28 40 -14
13 -45 51 -68 84 -52 75 -115 150 -188 225 -30 30 -82 86 -115 123 -33 38 -91
95 -130 128 -38 33 -109 97 -157 142 -47 44 -114 104 -148 131 -35 28 -75 62
-90 76 -15 14 -49 41 -74 59 -25 18 -46 36 -46 39 0 3 -14 12 -30 19 -17 8
-43 26 -58 42 -34 34 -199 150 -213 150 -13 0 -46 19 -89 51 -19 14 -82 50
-140 79 -58 28 -109 55 -115 60 -5 4 -53 30 -105 58 -111 59 -154 82 -271 145
-47 26 -88 46 -90 45 -2 -2 -3 -1 -2 1 2 2 -75 43 -170 91 -157 79 -279 144
-562 302 -55 31 -125 68 -155 82 -59 28 -57 27 -172 98 -42 27 -79 48 -82 48
-11 0 -126 81 -126 89 0 5 -13 13 -28 19 -15 5 -41 24 -57 41 -17 17 -35 31
-40 31 -13 0 -87 55 -265 198 -25 20 -109 99 -188 177 -79 77 -207 203 -286
280 -159 155 -305 321 -430 489 -71 95 -125 187 -225 381 -37 73 -81 175 -81
190 0 7 -15 54 -32 102 l-33 88 0 275 0 275 33 88 c17 48 32 95 32 102 0 15
44 117 81 190 100 194 154 286 225 381 125 169 271 334 435 494 81 80 218 214
303 298 85 83 160 152 166 152 6 0 8 5 5 10 -4 6 -1 18 7 28 14 18 -22 -9
-101 -76 -61 -52 -67 -41 -11 19 22 24 42 51 45 61 4 9 15 20 26 23 10 4 19
12 19 18 1 7 23 30 50 52 26 22 46 44 43 49 -4 5 -2 6 4 3 5 -3 24 10 42 28
18 19 37 35 42 35 6 0 7 6 3 13 -4 6 -3 9 1 4 5 -4 17 0 27 10 10 9 18 13 18
8 0 -4 12 0 26 10 14 9 28 14 31 11 3 -3 19 4 34 15 16 11 29 17 29 12 0 -4 5
0 11 10 5 9 16 17 23 17 7 0 22 14 34 30 13 17 29 30 37 30 8 0 15 7 15 15 0
9 6 12 15 8 9 -3 15 -2 14 3 -1 5 -1 16 0 24 1 12 3 13 10 1 7 -10 13 -11 27
-2 11 6 15 11 11 11 -5 0 -5 5 -1 11 4 8 9 7 15 -2 7 -11 9 -11 9 -1 0 7 7 20
15 28 8 9 15 12 15 8 0 -4 6 0 13 11 8 10 19 15 25 11 7 -4 12 -3 12 2 0 6 11
13 25 16 14 4 23 11 20 16 -6 9 1 11 47 14 9 1 20 5 24 9 5 4 0 5 -11 1 -25
-9 -18 -1 14 16 15 7 21 8 17 1 -5 -7 -1 -8 9 -5 9 4 14 13 11 20 -3 8 0 11 9
8 8 -3 19 3 26 15 11 16 16 18 28 8 10 -8 13 -9 8 0 -8 12 47 36 58 25 4 -4 5
-1 3 7 -2 8 22 26 60 45 34 18 59 35 56 39 -4 4 -2 7 5 7 7 0 19 7 27 15 9 8
11 15 5 15 -5 0 -13 -4 -16 -10 -3 -5 -13 -10 -21 -10 -8 0 -12 5 -9 10 4 6
10 8 14 5 10 -6 62 51 54 59 -4 3 1 6 11 6 9 0 14 5 11 10 -3 6 -1 10 5 10 6
0 8 5 5 10 -3 6 1 13 9 16 9 3 16 15 16 25 0 10 9 28 20 39 12 12 18 25 15 30
-3 5 11 20 32 33 21 13 44 32 52 41 7 9 18 16 23 16 13 0 170 93 304 180 104
66 134 85 214 128 25 14 66 40 91 58 25 18 58 38 73 44 52 19 387 239 509 333
50 38 78 67 79 81 0 11 2 27 2 34 1 12 66 64 143 113 29 19 48 45 45 62 -1 4
4 7 10 7 7 0 13 12 14 28 1 15 15 48 33 74 19 28 33 63 35 86 1 21 5 43 9 49
3 5 9 25 12 44 9 54 25 87 93 193 82 126 218 398 273 546 51 139 69 168 147
244 77 75 103 92 144 91 50 0 62 -33 37 -99 -12 -31 -19 -76 -19 -116 0 -83
-47 -231 -89 -282 -8 -9 -16 -23 -17 -31 -1 -8 -14 -34 -30 -58 -80 -126 -96
-149 -103 -149 -4 0 -17 -17 -29 -39 -12 -21 -29 -44 -37 -51 -8 -7 -13 -16
-10 -20 3 -4 -2 -10 -9 -13 -8 -3 -31 -32 -52 -64 -20 -32 -45 -65 -55 -74
-11 -9 -19 -20 -19 -24 0 -4 -21 -31 -46 -61 -26 -30 -42 -54 -37 -54 12 0 92
75 114 105 17 23 59 61 59 52 0 -3 -6 -12 -13 -19 -7 -7 -39 -51 -72 -96 -32
-46 -64 -86 -71 -89 -8 -3 -14 -12 -14 -20 0 -19 157 141 258 262 12 15 22 22
22 16 0 -5 -4 -12 -9 -16 -6 -3 -20 -27 -33 -53 -13 -26 -29 -51 -36 -55 -7
-5 -10 -12 -7 -18 4 -5 2 -9 -4 -9 -5 0 -24 -24 -42 -52 -31 -51 -85 -127
-111 -158 -7 -8 -25 -30 -41 -50 -38 -48 -86 -106 -122 -145 -16 -17 -61 -68
-100 -111 -112 -126 -491 -501 -524 -519 -17 -8 -31 -19 -31 -24 0 -4 -52 -33
-115 -65 -63 -31 -115 -61 -115 -66 0 -6 -5 -10 -12 -10 -15 0 -100 -41 -115
-55 -6 -7 -46 -29 -90 -50 -43 -22 -84 -44 -91 -50 -7 -5 -18 -14 -25 -20 -7
-5 -32 -21 -57 -34 -25 -13 -49 -29 -55 -35 -5 -7 -48 -31 -95 -55 -47 -24
-90 -47 -96 -52 -6 -5 -42 -25 -80 -45 -77 -41 -224 -133 -224 -141 0 -5 203
102 240 127 14 9 80 45 147 79 68 34 149 77 180 96 32 19 63 35 69 35 7 0 73
34 147 75 75 41 138 75 141 75 3 0 34 17 68 38 35 21 113 62 173 92 61 29 126
65 145 79 43 32 76 51 89 51 14 0 179 116 213 150 15 16 41 34 58 42 16 7 30
16 30 19 0 3 21 21 46 39 25 18 59 45 74 59 15 14 55 49 90 76 34 28 101 87
148 131 48 45 119 109 157 142 39 33 97 90 130 128 33 37 85 93 115 123 73 75
136 150 188 225 23 33 54 71 68 84 14 12 27 30 28 40 2 9 9 17 17 17 8 1 13 6
12 13 -2 7 2 11 8 9 16 -3 97 120 146 218 119 245 217 443 230 465 8 14 25 49
39 78 13 29 33 63 44 74 18 20 25 39 21 61 -1 5 3 6 9 2 5 -3 10 0 10 8 0 7 9
32 20 55 11 22 20 46 20 52 0 5 2 10 4 10 2 0 3 -42 2 -92z m-11922 -170 c14
-29 31 -64 39 -78 13 -22 111 -220 230 -465 49 -98 130 -221 146 -218 6 2 10
-2 8 -9 -1 -7 4 -12 12 -13 8 0 15 -8 17 -17 1 -10 14 -28 28 -40 14 -13 45
-51 68 -84 52 -75 115 -150 188 -225 30 -30 82 -86 115 -123 33 -38 92 -95
130 -128 39 -33 109 -97 157 -142 47 -44 114 -103 148 -131 35 -27 75 -62 90
-76 15 -14 49 -41 74 -59 25 -18 46 -36 46 -39 0 -3 14 -12 30 -19 17 -8 43
-26 58 -42 34 -34 199 -150 213 -150 13 0 46 -19 89 -51 19 -14 82 -50 140
-79 58 -28 110 -55 115 -60 6 -4 55 -31 110 -60 153 -81 206 -110 252 -137 22
-13 51 -26 62 -28 12 -2 47 -19 79 -38 31 -19 113 -64 182 -99 121 -63 308
-165 515 -280 55 -31 125 -68 155 -82 59 -28 57 -27 172 -98 42 -27 79 -48 82
-48 11 0 126 -81 126 -89 0 -5 13 -13 28 -19 15 -5 41 -24 57 -41 17 -17 35
-31 41 -31 10 0 65 -40 175 -128 30 -24 70 -55 89 -70 19 -15 102 -92 183
-172 81 -80 213 -208 292 -285 158 -155 304 -321 429 -489 71 -95 125 -187
225 -381 37 -73 81 -175 81 -190 0 -7 15 -54 33 -102 l32 -88 0 -255 c0 -284
-8 -438 -25 -490 -28 -83 -79 -193 -142 -304 -37 -66 -68 -121 -68 -122 0 -1
-18 -31 -40 -65 -21 -35 -53 -89 -71 -119 -17 -30 -56 -89 -85 -132 -30 -42
-54 -81 -54 -87 0 -6 -4 -11 -9 -11 -4 0 -16 -19 -25 -42 -20 -52 -105 -151
-148 -173 -35 -17 -68 -12 -68 11 0 10 5 12 13 8 8 -5 8 -2 -2 9 -7 9 -18 17
-23 17 -5 0 -111 -101 -236 -224 -125 -123 -243 -237 -262 -252 -19 -16 -37
-31 -40 -35 -3 -3 -30 -24 -60 -47 -30 -23 -84 -64 -119 -92 -35 -27 -69 -50
-75 -50 -6 0 -26 -16 -45 -35 -19 -19 -39 -35 -46 -35 -7 0 -28 -14 -46 -30
-19 -17 -68 -49 -109 -71 -41 -23 -84 -50 -95 -60 -23 -21 -84 -56 -165 -95
-30 -14 -100 -51 -155 -82 -233 -129 -399 -220 -545 -295 -85 -44 -162 -85
-170 -92 -8 -7 -26 -16 -40 -20 -14 -4 -50 -21 -80 -37 -52 -29 -83 -46 -255
-138 -224 -120 -463 -263 -520 -311 -58 -48 -128 -90 -143 -84 -9 3 -13 3 -9
-1 7 -8 -55 -54 -72 -54 -6 0 -11 -4 -11 -8 0 -5 -21 -24 -46 -42 -25 -18 -59
-45 -74 -59 -15 -14 -55 -48 -90 -76 -34 -27 -101 -87 -148 -131 -48 -45 -118
-109 -157 -142 -38 -33 -97 -90 -130 -128 -33 -37 -85 -93 -115 -123 -73 -75
-136 -150 -188 -225 -23 -33 -54 -71 -68 -84 -14 -12 -27 -30 -28 -40 -2 -9
-9 -17 -17 -17 -8 -1 -13 -6 -11 -13 1 -7 -3 -11 -9 -10 -16 4 -97 -119 -146
-217 -119 -245 -217 -443 -230 -465 -8 -14 -25 -49 -39 -78 -13 -29 -33 -63
-44 -74 -18 -20 -25 -39 -21 -61 1 -5 -3 -6 -9 -2 -5 3 -10 -2 -10 -12 0 -11
-4 -23 -9 -29 -10 -10 -60 -146 -67 -179 -2 -11 -14 -48 -28 -81 -13 -34 -34
-95 -46 -135 -12 -41 -30 -101 -40 -134 -24 -78 -45 -168 -65 -280 -9 -49 -23
-116 -30 -147 -8 -32 -15 -71 -15 -87 0 -16 -5 -42 -11 -57 -10 -28 -27 -142
-34 -239 -3 -27 -6 -73 -8 -102 -3 -28 -9 -57 -13 -65 -5 -7 -10 -811 -12
-1800 l-3 -1788 -29 0 -28 0 3 763 c2 419 4 812 4 872 0 61 -2 142 -5 181 -4
47 -2 74 5 78 18 12 12 41 -13 65 -14 13 -22 30 -19 40 3 12 -5 26 -21 39 -24
18 -26 26 -26 98 1 129 17 264 34 283 13 15 16 85 17 546 1 467 3 533 17 557
15 26 15 29 -4 55 -11 16 -31 33 -43 38 -22 10 -23 13 -17 90 12 154 14 461 3
590 -10 130 2 558 18 597 4 11 20 18 43 20 34 3 37 6 40 38 1 19 6 42 9 50 3
8 5 21 4 29 -1 7 2 10 8 6 6 -3 11 1 11 10 0 9 13 29 28 43 112 106 142 136
142 144 0 5 17 30 38 57 44 58 96 150 97 171 0 8 4 21 9 29 6 10 6 12 -2 7 -6
-4 -5 6 3 21 17 33 20 57 5 48 -6 -4 -4 11 3 32 34 94 47 142 52 196 2 32 10
67 15 78 6 11 8 29 5 39 -4 11 -2 20 3 20 5 0 12 30 15 68 7 86 16 148 26 175
5 12 7 31 4 42 -10 57 -12 109 -3 153 5 30 5 63 -1 88 -5 21 -12 104 -16 184
-3 80 -7 168 -8 195 -13 273 -16 383 -18 657 -1 175 -4 318 -7 318 -3 0 -5
114 -5 254 0 140 -4 252 -8 249 -5 -3 -4 4 2 16 8 15 10 202 6 683 -3 365 -7
683 -10 708 -2 25 -6 248 -9 495 -5 440 -9 603 -23 795 -7 93 -7 108 -2 160 1
14 -2 176 -7 360 -10 411 -11 734 -2 820 4 36 10 141 14 235 3 93 8 177 9 187
7 33 16 859 20 1754 2 485 7 928 11 985 5 57 8 166 9 242 0 75 4 137 9 137 4
0 6 24 2 53 -3 28 -9 104 -12 167 -3 63 -6 117 -6 120 0 3 0 25 1 49 l1 45 20
-22 c11 -11 31 -45 44 -74z m422 -339 c1 -48 16 -102 25 -87 9 14 10 12 13
-43 1 -14 8 -37 17 -50 8 -13 23 -41 34 -61 11 -21 23 -38 27 -38 5 0 8 -5 8
-11 0 -17 61 -101 106 -144 23 -22 44 -51 48 -63 4 -12 11 -20 15 -17 4 2 14
-8 22 -23 17 -33 30 -43 46 -37 7 2 15 -1 19 -7 4 -7 3 -8 -4 -4 -7 4 -12 2
-12 -3 0 -6 6 -11 13 -11 6 0 25 -21 42 -48 16 -26 38 -55 47 -64 10 -10 48
-52 85 -95 37 -43 79 -90 93 -104 14 -14 36 -40 50 -57 14 -17 28 -31 32 -32
14 0 58 -44 58 -57 0 -7 3 -12 8 -11 4 1 27 -13 52 -31 25 -19 37 -31 27 -28
-11 4 -16 3 -12 -3 3 -6 10 -10 16 -10 11 0 28 -14 118 -100 78 -75 111 -102
111 -94 0 5 78 -52 90 -66 3 -4 49 -41 103 -84 95 -77 116 -97 78 -76 -37 19
-32 10 18 -32 79 -68 164 -133 172 -133 4 0 14 -6 21 -14 11 -12 10 -12 -2 -5
-8 5 -23 10 -33 11 -10 2 -25 9 -32 17 -8 7 -55 31 -105 52 -77 33 -110 56
-213 144 -129 110 -189 164 -216 191 -9 9 -38 33 -66 54 -27 21 -63 50 -80 66
-16 16 -59 53 -94 83 -95 81 -409 412 -431 456 -10 20 -25 40 -33 43 -8 3 -21
20 -30 39 -9 18 -36 60 -61 93 -25 33 -46 67 -46 75 0 8 -22 55 -50 104 -27
49 -47 93 -43 99 3 5 1 7 -4 4 -6 -4 -13 10 -17 35 -4 23 -11 47 -15 53 -5 5
-14 28 -21 50 -7 22 -22 54 -33 70 -11 17 -14 24 -7 18 19 -18 31 -16 23 3 -4
12 -2 15 8 12 8 -3 14 -16 15 -29z m6024 -4144 c-7 -9 -15 -13 -19 -10 -3 3 1
10 9 15 21 14 24 12 10 -5z m-10 -34 c0 -5 -6 -14 -14 -20 -12 -10 -13 -8 -9
8 5 21 23 30 23 12z m-930 -39 c3 -4 12 -8 20 -10 20 -4 81 -69 107 -114 l21
-37 -28 -43 c-28 -44 -107 -125 -113 -117 -2 2 -33 57 -70 121 -36 64 -72 126
-78 136 -10 16 -10 23 4 37 9 9 17 21 17 26 0 6 9 5 21 -2 13 -6 19 -7 15 -1
-12 20 69 23 84 4z m720 -1329 c1 -32 83 -280 108 -328 31 -60 31 -60 32 -25
0 35 1 34 36 -30 20 -36 49 -83 64 -105 15 -22 51 -87 80 -145 29 -58 64 -121
78 -140 l25 -35 -41 40 c-42 39 -51 40 -32 5 10 -20 -3 -39 -15 -20 -3 5 -19
7 -36 3 -24 -5 -36 0 -59 22 -16 15 -34 41 -41 59 -7 17 -21 43 -31 59 -11 15
-16 27 -12 27 4 0 -1 9 -11 20 -10 11 -15 20 -10 20 4 0 0 11 -9 25 -9 13 -16
30 -16 36 0 7 -6 20 -14 28 -7 9 -26 68 -41 131 -14 63 -29 124 -32 135 -15
58 -38 225 -31 225 4 0 8 -3 8 -7z m500 -903 c34 -41 57 -76 51 -78 -6 -2 -18
3 -26 11 -8 9 -18 17 -22 19 -5 1 -23 32 -42 68 -19 36 -32 63 -29 60 3 -3 33
-39 68 -80z m-1683 -98 c-10 -10 -17 -22 -17 -26 0 -17 -55 -78 -83 -93 -24
-12 -17 0 38 61 38 42 71 76 73 76 3 0 -2 -8 -11 -18z m2827 -1989 c-18 -13
-18 -13 1 -11 11 2 26 7 33 11 8 5 12 2 12 -8 0 -9 4 -14 9 -11 5 3 11 -1 15
-9 3 -8 14 -15 25 -15 10 0 21 -6 24 -13 3 -7 41 -35 86 -63 45 -27 84 -57 87
-66 3 -10 13 -18 21 -18 9 0 28 -13 42 -28 14 -16 40 -35 58 -43 17 -7 29 -17
27 -21 -3 -4 1 -8 9 -8 7 0 32 -17 54 -37 22 -21 55 -52 74 -69 73 -66 224
-235 262 -295 19 -30 7 -50 -18 -29 -9 7 -15 8 -20 0 -8 -14 3 -30 21 -30 8 0
12 -4 9 -10 -3 -5 2 -10 12 -11 11 0 13 -3 5 -6 -9 -4 -6 -14 13 -38 14 -19
25 -37 25 -42 0 -4 -5 -1 -10 7 -7 11 -12 12 -21 3 -17 -17 -1 -34 26 -27 24
6 43 -10 25 -21 -5 -3 -10 -1 -10 5 0 6 -10 8 -24 4 -13 -3 -27 -1 -30 5 -4 6
-24 15 -46 21 -21 6 -46 17 -55 26 -8 8 -15 11 -15 5 0 -5 4 -13 10 -16 5 -3
15 -15 21 -26 10 -20 9 -20 -18 -4 -46 26 -65 39 -97 68 -16 15 -35 26 -42 23
-7 -3 -11 0 -8 7 4 12 -23 47 -65 82 l-24 20 6 -23 c3 -13 2 -22 -2 -20 -24
10 -161 116 -171 133 -13 20 -13 20 11 0 l24 -20 -24 28 c-14 15 -31 27 -38
27 -8 0 -11 5 -7 12 5 8 2 9 -9 5 -10 -4 -23 3 -36 18 -10 14 -22 25 -26 25
-3 0 -13 7 -21 15 -18 18 -8 39 14 30 13 -5 13 -2 -2 14 -10 11 -15 25 -11 30
5 10 -7 15 -27 12 -5 0 -8 3 -8 8 0 5 -14 14 -30 21 -17 7 -28 15 -26 18 3 2
-2 11 -10 19 -8 8 -11 19 -8 25 4 6 2 8 -3 5 -12 -7 -76 52 -81 74 -2 7 -19
35 -39 61 -31 43 -35 66 -5 36 18 -18 16 12 -4 40 -8 12 -13 26 -10 31 4 5 0
12 -6 14 -7 3 -3 6 9 6 16 1 20 6 16 21 -3 11 -10 20 -17 21 -15 1 24 16 42
16 11 0 9 -4 -4 -14z m-9887 -585 c-3 -8 -6 -5 -6 6 -1 11 2 17 5 13 3 -3 4
-12 1 -19z m4973 -78 c-12 -30 -30 -66 -41 -81 -10 -15 -19 -34 -19 -41 0 -8
-3 -18 -6 -21 -4 -4 -17 -30 -29 -59 -12 -29 -41 -98 -64 -153 -67 -159 -128
-279 -150 -295 -12 -8 -21 -20 -21 -26 0 -6 -9 -14 -21 -17 -12 -3 -18 -10
-15 -16 4 -5 -2 -14 -11 -20 -12 -7 -14 -10 -4 -11 7 0 1 -10 -15 -22 -46 -36
-63 -56 -56 -64 4 -4 -1 -4 -11 -1 -10 4 -16 3 -12 -2 5 -10 -64 -58 -77 -53
-5 1 -8 -2 -8 -7 0 -16 -59 9 -64 27 -8 24 9 183 29 282 2 14 7 39 11 55 6 31
69 170 87 194 6 7 12 20 13 28 3 20 33 63 43 63 5 0 14 15 20 33 8 20 29 44
59 65 27 17 51 32 55 32 4 0 16 8 27 18 11 9 24 17 28 18 17 1 89 40 110 59
13 11 24 18 25 17 4 -7 57 21 57 30 0 5 3 7 8 5 4 -3 21 1 37 8 17 6 31 11 33
10 1 -1 -7 -26 -18 -55z m5465 -90 c3 -6 -1 -7 -9 -4 -18 7 -21 14 -7 14 6 0
13 -4 16 -10z m2585 -1198 c0 -7 -4 -10 -10 -7 -5 3 -10 16 -10 28 0 18 2 19
10 7 5 -8 10 -21 10 -28z m16 -40 c-2 -4 4 -25 14 -47 11 -22 19 -46 20 -52 0
-7 3 -13 8 -13 4 0 21 -26 37 -58 17 -31 35 -60 42 -65 7 -4 9 -15 6 -24 -4
-11 -3 -14 5 -9 11 6 17 -12 13 -36 0 -5 4 -8 10 -8 6 0 8 -7 5 -15 -3 -9 1
-18 9 -21 8 -4 15 -10 15 -16 0 -5 -4 -6 -10 -3 -5 3 -10 1 -10 -5 0 -6 -4 -9
-9 -5 -5 3 -12 1 -15 -4 -4 -5 -2 -12 4 -16 6 -4 7 -11 4 -17 -4 -6 1 -6 14 1
11 6 23 15 25 21 3 6 4 5 3 -2 -2 -7 1 -22 6 -32 9 -16 7 -18 -11 -13 -18 4
-20 3 -10 -9 23 -28 -4 -13 -34 19 -17 17 -27 26 -22 18 5 -10 4 -12 -3 -7 -8
5 -9 13 -3 25 8 14 6 17 -12 17 -13 -1 -22 5 -22 14 0 8 -8 21 -17 28 -10 7
-18 17 -18 22 0 17 -48 79 -55 72 -5 -4 -5 -2 -2 4 7 12 -24 58 -66 96 -27 25
-27 26 -5 31 12 4 29 1 37 -6 9 -6 13 -7 8 -2 -4 4 1 17 10 28 10 11 12 17 6
13 -7 -4 -13 -2 -13 3 0 6 7 11 16 11 12 0 14 8 10 35 -4 21 -2 35 5 35 5 0 8
-3 5 -8z m-10989 -186 c-1 -1 5 -11 13 -21 9 -11 10 -16 3 -11 -9 5 -13 0 -13
-15 0 -18 6 -14 35 25 40 52 46 55 40 25 -4 -18 -2 -19 13 -8 9 7 14 10 10 5
-4 -5 0 -22 9 -39 34 -66 9 -146 -90 -295 -28 -43 -56 -82 -62 -88 -5 -6 -21
-25 -35 -43 -13 -18 -37 -39 -52 -47 l-27 -14 11 30 c5 17 14 30 19 30 5 0 9
5 9 12 0 9 -3 9 -12 0 -15 -15 -74 -16 -83 -2 -8 13 18 96 56 177 16 34 51
115 77 180 59 147 63 153 73 125 5 -12 7 -24 6 -26z m11158 -214 c-3 -3 -11 0
-18 7 -9 10 -8 11 6 5 10 -3 15 -9 12 -12z m1072 -5224 c-3 -8 -6 -5 -6 6 -1
11 2 17 5 13 3 -3 4 -12 1 -19z"/>
<path d="M20710 20419 c-14 -17 -34 -40 -44 -50 -11 -10 -17 -21 -14 -24 5 -6
64 62 82 93 13 21 2 13 -24 -19z"/>
<path d="M18520 18635 c-14 -8 -20 -14 -15 -14 6 0 21 6 35 14 14 8 21 14 15
14 -5 0 -21 -6 -35 -14z"/>
<path d="M18004 18305 c-10 -8 -14 -15 -8 -15 6 0 17 7 24 15 16 19 9 19 -16
0z"/>
<path d="M17925 18260 c-3 -5 -1 -10 4 -10 6 0 11 5 11 10 0 6 -2 10 -4 10 -3
0 -8 -4 -11 -10z"/>
<path d="M17896 18233 c-6 -14 -5 -15 5 -6 7 7 10 15 7 18 -3 3 -9 -2 -12 -12z"/>
<path d="M17823 18194 c4 -4 2 -13 -4 -21 -15 -17 -1 -17 16 1 12 12 12 15 -2
21 -10 3 -14 3 -10 -1z"/>
<path d="M22442 9081 c-11 -7 -11 -9 2 -14 10 -4 16 -1 16 8 0 17 -1 17 -18 6z"/>
<path d="M15481 15233 c-10 -26 -10 -27 4 -9 8 11 15 23 15 28 0 15 -7 8 -19
-19z"/>
<path d="M9740 9075 c0 -9 6 -12 15 -9 8 4 15 7 15 9 0 2 -7 5 -15 9 -9 3 -15
0 -15 -9z"/>
<path d="M18451 12102 c-1 -7 9 -16 22 -21 12 -5 38 -22 57 -39 19 -17 37 -29
39 -26 8 7 -73 73 -91 74 -9 0 -19 6 -21 13 -4 9 -6 9 -6 -1z"/>
<path d="M18775 11890 c3 -5 8 -10 11 -10 2 0 4 5 4 10 0 6 -5 10 -11 10 -5 0
-7 -4 -4 -10z"/>
<path d="M10172 10396 c-20 -19 -34 -37 -30 -41 24 -24 151 36 134 63 -15 24
-65 13 -104 -22z"/>
</g>
</svg>
